<?xml version="1.0" encoding="UTF-8" standalone="no"?>
<!-- Created with Inkscape (http://www.inkscape.org/) -->

<svg
   width="816.4541mm"
   height="516.49609mm"
   viewBox="0 0 816.4541 516.49609"
   version="1.1"
   id="svg1"
   inkscape:version="1.4.2 (ebf0e94, 2025-05-08)"
   sodipodi:docname="pcdb-design.svg"
   inkscape:export-filename="home.svg"
   inkscape:export-xdpi="96"
   inkscape:export-ydpi="96"
   xmlns:inkscape="http://www.inkscape.org/namespaces/inkscape"
   xmlns:sodipodi="http://sodipodi.sourceforge.net/DTD/sodipodi-0.dtd"
   xmlns:xlink="http://www.w3.org/1999/xlink"
   xmlns="http://www.w3.org/2000/svg"
   xmlns:svg="http://www.w3.org/2000/svg">
  <sodipodi:namedview
     id="namedview1"
     pagecolor="#ffffff"
     bordercolor="#000000"
     borderopacity="0.25"
     inkscape:showpageshadow="2"
     inkscape:pageopacity="0.0"
     inkscape:pagecheckerboard="0"
     inkscape:deskcolor="#d1d1d1"
     inkscape:document-units="mm"
     showgrid="false"
     inkscape:zoom="0.44720819"
     inkscape:cx="13908.511"
     inkscape:cy="3472.6555"
     inkscape:window-width="2327"
     inkscape:window-height="1215"
     inkscape:window-x="0"
     inkscape:window-y="0"
     inkscape:window-maximized="1"
     inkscape:current-layer="layer6">
    <inkscape:grid
       id="grid545"
       units="mm"
       originx="-771.59789"
       originy="-64.726807"
       spacingx="100"
       spacingy="100"
       empcolor="#0099e5"
       empopacity="0.30196078"
       color="#0099e5"
       opacity="0.14901961"
       empspacing="5"
       enabled="true"
       visible="true" />
    <inkscape:page
       x="0"
       y="0"
       width="816.4541"
       height="516.49609"
       id="page2"
       margin="0"
       bleed="0" />
  </sodipodi:namedview>
  <defs
     id="defs1">
    <symbol
       id="sjjb-sport.svg:swimming_outdoor"
       viewBox="0 0 470.9668 342.81229">
      <title
         id="title33">Swimming (outdoor)</title>
      <path
         d="m 420.25586,0.00392094 c -0.5293,-0.0103 -1.077,-2.3e-4 -1.64258,0.0293 -18.4933,1.12169996 -75.16286,24.15484006 -94.10742,32.18750006 -18.9471,7.73653 -15.49809,8.62375 -17.98633,14.4707 -2.43185,5.67003 -0.62191,8.32676 3.67773,20.25781 4.18554,11.99 11.36955,28.82019 21.54688,51.146489 l -129.40039,69.04297 c 11.9336,-5.6726 24.43403,-7.85649 37.72265,-6.55274 13.23478,1.29732 25.78916,14.05303 41.625,14.11328 15.77814,-0.29356 35.45915,-15.05827 52.70899,-15.12109 17.30492,0.0628 35.8566,13.29342 49.76953,14.64844 13.68602,1.00631 23.81135,-1.53721 31.44531,-8.0918 L 356.40234,55.84572 c 16.45759,-6.14307 30.70936,-11.69319 43.66211,-16.6543 12.78097,-5.19827 29.63425,-6.85167 32.91602,-13.40625 2.90352,-6.52361 3.68367,-25.46295006 -12.72461,-25.78125006 z M 434.82812,74.396501 c -19.9496,0 -36.13867,16.90738 -36.13867,37.740229 0,20.83285 16.19036,37.73829 36.13867,37.73829 19.94831,0 36.13867,-16.90544 36.13867,-37.73829 0,-20.832849 -16.1891,-37.740229 -36.13867,-37.740229 z M 27.41015,127.57033 c -0.462961,-0.001 -0.913108,0.009 -1.34961,0.0332 -13.914199,0.76789 -18.946291,17.66003 -12.046875,26.10547 6.900704,8.20956 36.024871,16.59831 53.105475,22.85547 16.96651,5.91103 32.57544,10.27763 47.90234,13.11328 11.99001,-5.60977 23.01944,-8.44577 33.53906,-8.26758 10.46323,0.2346 20.7562,7.73556 28.90039,9.09571 8.03135,1.18196 14.30968,0.35435 19.06055,-2.24415 C 157.89271,172.37461 125.14609,159.67826 96.52929,149.51759 68.64161,139.56143 41.761936,127.60943 27.41015,127.57033 Z m 118.97657,66.64062 c -0.46184,-0.007 -0.9258,-0.003 -1.39063,0.0117 -15.2705,0.59353 -32.01063,12.40435 -46.941398,13.11328 -15.0436,0.23715 -28.67495,-10.98299 -41.96485,-11.10351 -13.402719,-0.23587 -28.446862,8.20874 -37.496092,10.09961 -9.049247,1.71524 -14.761615,1.89334 -16.910157,0.5332 v 31.30273 c 2.148542,1.35757 7.86091,1.18271 16.910157,-0.53125 9.04923,-1.89085 24.092102,-10.33745 37.496092,-10.10156 13.29118,0.11921 26.92124,11.33999 41.96485,11.10156 14.930768,-0.58843 31.670898,-12.69724 46.941398,-13.11132 14.87439,-0.5897 28.16582,10.39497 43.1543,10.63086 15.21409,0.1205 30.65303,-9.91985 46.9414,-9.625 16.06145,0.23459 32.40546,11.15991 48.80664,11.10351 16.11785,-0.3551 31.38826,-11.99143 48.18555,-12.10937 16.8537,-0.0564 35.40338,11.34125 51.91992,11.63867 16.28582,0 33.14386,-10.69397 45.07618,-11.10547 11.6503,-0.5333 18.04051,7.02868 25.05273,8.56445 6.89942,1.47679 12.1597,1.71162 16.23242,0.47071 v -31.30274 c -4.07272,1.2435 -9.333,1.00481 -16.23242,-0.4707 -7.01222,-1.59602 -13.40243,-9.0365 -25.05273,-8.625 -11.93361,0.41408 -28.79036,11.10547 -45.07618,11.10547 -16.51654,-0.35125 -35.06622,-11.57813 -51.91992,-11.57813 -16.79729,0.11921 -32.0677,11.75428 -48.18555,12.10938 -16.40118,0.0577 -32.74519,-10.86765 -48.80664,-11.10352 -16.28837,-0.41278 -31.72731,9.68886 -46.9414,9.56836 -14.51885,-0.28439 -27.44687,-10.38394 -41.76367,-10.58594 z m 0,52.38867 c -0.46184,-0.006 -0.9258,-0.003 -1.39063,0.0117 -15.2705,0.58968 -32.01063,12.4018 -46.941398,13.11328 -15.0436,0.2346 -28.67495,-10.98752 -41.96485,-11.10546 -13.402719,-0.2346 -28.446862,8.21069 -37.496092,10.10156 -9.049247,1.83317 -14.761615,1.77127 -16.910157,0.47266 v 31.30273 c 2.148542,1.2986 7.86091,1.36051 16.910157,-0.47266 9.04923,-1.89215 24.092102,-10.33616 37.496092,-10.10156 13.29118,0.11793 26.92124,11.34007 41.96485,11.10547 14.930768,-0.71147 31.670898,-12.52359 46.941398,-13.11328 14.87439,-0.47303 28.16582,10.27741 43.1543,10.57226 15.21409,0.11794 30.65303,-9.98242 46.9414,-9.56836 16.06145,0.23717 32.40546,11.16377 48.80664,11.10352 16.11785,-0.35255 31.38826,-11.99204 48.18555,-12.10742 16.8537,0 35.40338,11.22363 51.91992,11.57617 16.28582,0 33.14386,-10.69072 45.07618,-11.10352 11.6503,-0.41406 18.04051,7.02575 25.05273,8.62305 6.89942,1.47681 12.1597,1.71423 16.23242,0.47461 v -31.30273 c -4.07272,1.12042 -9.333,0.94555 -16.23242,-0.53125 -7.01222,-1.53449 -13.40243,-9.09842 -25.05273,-8.56641 -11.93361,0.41278 -28.79036,11.10352 -45.07618,11.10352 -16.51654,-0.35254 -35.06622,-11.57618 -51.91992,-11.57618 -16.79729,0.11922 -32.0677,11.75491 -48.18555,12.10743 -16.40118,0.0602 -32.74519,-10.86636 -48.80664,-11.10352 -16.28837,-0.41408 -31.72731,9.68629 -46.9414,9.56836 -14.51885,-0.28564 -27.44687,-10.38321 -41.76367,-10.58399 z m -1.6836,51.375 c -0.46183,-0.006 -0.9258,-0.003 -1.39062,0.0117 -15.2705,0.58968 -32.01063,12.4018 -46.941408,13.11328 -15.0436,0.2346 -28.67494,-10.98752 -41.96484,-11.10546 -13.402723,-0.2346 -28.446866,8.20874 -37.496096,10.09961 -9.049244,1.83317 -14.761611,1.77321 -16.9101600000001,0.47461 v 31.30078 C 2.148546,343.16774 7.860912,343.22965 16.910152,341.39648 c 9.04923,-1.89215 24.092103,-10.33421 37.496096,-10.09961 13.29118,0.11793 26.92124,11.34007 41.96484,11.10547 14.930782,-0.71147 31.670912,-12.52359 46.941412,-13.11328 14.87439,-0.47303 28.16581,10.27741 43.15429,10.57226 15.21409,0.11794 30.65304,-9.98242 46.94141,-9.56836 16.06145,0.23717 32.40545,11.16377 48.80664,11.10352 16.11785,-0.35255 31.38826,-11.99204 48.18555,-12.10742 16.8537,0 35.40338,11.22168 51.91992,11.57422 16.28582,0 33.14385,-10.68877 45.07617,-11.10157 11.6503,-0.41406 18.04052,7.02575 25.05274,8.62305 6.89942,1.47681 12.1597,1.71423 16.23242,0.47461 v -31.30273 c -4.07272,1.12042 -9.333,0.94359 -16.23242,-0.53321 -7.01222,-1.53449 -13.40244,-9.09646 -25.05274,-8.56445 -11.93361,0.41278 -28.79035,11.10156 -45.07617,11.10156 -16.51654,-0.35254 -35.06622,-11.57422 -51.91992,-11.57422 -16.79729,0.11922 -32.0677,11.75491 -48.18555,12.10743 -16.40119,0.0602 -32.74519,-10.86636 -48.80664,-11.10352 -16.28837,-0.41408 -31.72732,9.68629 -46.94141,9.56836 -14.51885,-0.28564 -27.44686,-10.38321 -41.76367,-10.58399 z"
         id="path34" />
    </symbol>
  </defs>
  <g
     inkscape:groupmode="layer"
     id="layer6"
     inkscape:label="add"
     style="display:inline"
     transform="translate(-771.5979,-64.726782)">
    <text
       xml:space="preserve"
       style="font-weight:bold;font-size:8.46667px;line-height:0;font-family:'Bitstream Vera Sans';-inkscape-font-specification:'Bitstream Vera Sans Bold';text-align:start;writing-mode:lr-tb;direction:ltr;text-anchor:start;fill:#e2e3db;stroke-width:4.99999"
       x="853.72711"
       y="341.96414"
       id="text27"><tspan
         sodipodi:role="line"
         id="tspan27"
         style="fill:#e2e3db;stroke-width:5"
         x="853.72711"
         y="341.96414">Lorem</tspan></text>
  </g>
  <g
     inkscape:groupmode="layer"
     id="layer2"
     inkscape:label="page-template"
     transform="translate(-873.3588,-63.543522)">
    <rect
       style="display:inline;fill:#333333;stroke-width:4.99999"
       id="rect408-65-3"
       width="816.45416"
       height="516.49603"
       x="873.35876"
       y="63.543533"
       inkscape:export-filename="view-template.svg"
       inkscape:export-xdpi="96"
       inkscape:export-ydpi="96" />
    <text
       xml:space="preserve"
       style="font-style:oblique;font-variant:normal;font-weight:normal;font-stretch:normal;font-size:8.46667px;line-height:0;font-family:'Bitstream Vera Sans';-inkscape-font-specification:'Bitstream Vera Sans Oblique';text-align:start;writing-mode:lr-tb;direction:ltr;text-anchor:start;fill:#e2e3db;fill-opacity:1;stroke-width:4.99999"
       x="963.41302"
       y="508.60764"
       id="text546-9"><tspan
         sodipodi:role="line"
         id="tspan546-3"
         style="stroke-width:5"
         x="963.41302"
         y="508.60764">Click on pcdb logo to return to Home screen.</tspan><tspan
         sodipodi:role="line"
         style="stroke-width:5"
         x="963.41302"
         y="508.60764"
         id="tspan1-2" /></text>
    <text
       xml:space="preserve"
       style="font-style:oblique;font-variant:normal;font-weight:normal;font-stretch:normal;font-size:8.46667px;line-height:0;font-family:'Bitstream Vera Sans';-inkscape-font-specification:'Bitstream Vera Sans Oblique';text-align:start;writing-mode:lr-tb;direction:ltr;text-anchor:start;fill:#e2e3db;fill-opacity:1;stroke-width:4.99999"
       x="963.06989"
       y="311.72281"
       id="text546-9-3"><tspan
         sodipodi:role="line"
         id="tspan546-3-1"
         style="font-style:normal;font-variant:normal;font-weight:normal;font-stretch:normal;font-family:'Bitstream Vera Sans';-inkscape-font-specification:'Bitstream Vera Sans';stroke-width:5"
         x="963.06989"
         y="311.72281">Lorem Ipsum ...</tspan><tspan
         sodipodi:role="line"
         style="stroke-width:5"
         x="963.06989"
         y="311.72281"
         id="tspan1-2-9" /></text>
    <text
       xml:space="preserve"
       style="font-size:25.4px;line-height:0;text-align:start;writing-mode:lr-tb;direction:ltr;text-anchor:start;display:inline;fill:#008080;stroke-width:4.99999"
       x="963.17499"
       y="292.41309"
       id="text408-5"><tspan
         sodipodi:role="line"
         id="tspan408-49"
         style="font-style:normal;font-variant:normal;font-weight:normal;font-stretch:normal;font-size:25.4px;font-family:'Bitstream Vera Sans';-inkscape-font-specification:'Bitstream Vera Sans';fill:#008080;stroke-width:5"
         x="963.17499"
         y="292.41309"><tspan
           style="font-style:normal;font-variant:normal;font-weight:bold;font-stretch:normal;font-size:28.2222px;font-family:'Bitstream Vera Sans';-inkscape-font-specification:'Bitstream Vera Sans Bold';fill:#008080"
           id="tspan95">An error has occured.</tspan></tspan></text>
    <text
       xml:space="preserve"
       style="font-size:11.2889px;line-height:0;text-align:start;writing-mode:lr-tb;direction:ltr;text-anchor:start;display:inline;fill:#333333;stroke-width:4.99999"
       x="1471.5005"
       y="336.87817"
       id="text420-0-1"><tspan
         sodipodi:role="line"
         id="tspan420-6-2"
         style="font-style:normal;font-variant:normal;font-weight:normal;font-stretch:normal;font-family:'Bitstream Vera Sans';-inkscape-font-specification:'Bitstream Vera Sans';fill:#333333;stroke-width:5"
         x="1471.5005"
         y="336.87817">US Delta (auto pop)</tspan></text>
    <text
       xml:space="preserve"
       style="font-size:34.1865px;line-height:0;text-align:start;writing-mode:lr-tb;direction:ltr;text-anchor:start;display:inline;fill:#009999;fill-opacity:1;stroke-width:6.72961"
       x="1568.1238"
       y="573.74756"
       id="text408-6-82-0"
       transform="scale(1.0152013,0.98502631)"><tspan
         sodipodi:role="line"
         id="tspan408-2-1-3"
         style="font-style:normal;font-variant:normal;font-weight:bold;font-stretch:normal;font-size:34.1865px;font-family:Hack;-inkscape-font-specification:'Hack Bold';fill:#009999;fill-opacity:1;stroke-width:6.72962"
         x="1568.1238"
         y="573.74756">pcdb</tspan><tspan
         sodipodi:role="line"
         style="font-style:normal;font-variant:normal;font-weight:bold;font-stretch:normal;font-size:34.1865px;font-family:sans-serif;-inkscape-font-specification:'sans-serif Bold';fill:#009999;fill-opacity:1;stroke-width:6.72962"
         x="1568.1238"
         y="574.60596"
         id="tspan421-0-6"> </tspan></text>
    <text
       xml:space="preserve"
       style="font-size:8.46667px;line-height:0;text-align:start;writing-mode:lr-tb;direction:ltr;text-anchor:start;display:inline;fill:#e2e3db;stroke-width:4.99999"
       x="1602.7573"
       y="575.13379"
       id="text410-7-5-1"><tspan
         sodipodi:role="line"
         id="tspan410-4-8-0"
         style="font-style:normal;font-variant:normal;font-weight:bold;font-stretch:normal;font-size:8.46667px;font-family:'Bitstream Vera Sans';-inkscape-font-specification:'Bitstream Vera Sans Bold';fill:#e2e3db;stroke-width:5"
         x="1602.7573"
         y="575.13379">copyright 2025</tspan></text>
    <rect
       style="display:inline;fill:#008080;stroke-width:4.99999"
       id="rect535-9-5-6"
       width="60"
       height="48"
       x="1572.9204"
       y="472.30347"
       rx="5"
       ry="5" />
    <rect
       style="display:inline;fill:#c4c8b7;stroke-width:4.99999"
       id="rect536-4-5-3"
       width="35.49799"
       height="72.179283"
       x="1650.4243"
       y="449.22974"
       rx="5"
       ry="5" />
    <rect
       style="display:inline;fill:#c4c8b7;stroke-width:4.99999"
       id="rect537-5-0-2"
       width="14.199203"
       height="21.890438"
       x="1634.4502"
       y="498.927"
       rx="5"
       ry="5" />
    <rect
       style="display:inline;fill:#c4c8b7;stroke-width:4.79123"
       id="rect538-3-7-0"
       width="86.378479"
       height="20.70717"
       x="1559.3127"
       y="524.36719"
       rx="4.5911951"
       ry="5" />
    <rect
       style="display:inline;fill:#c4c8b7;stroke-width:4.99999"
       id="rect539-5-3-6"
       width="8.8745012"
       height="18.340637"
       x="1662.8486"
       y="525.55054"
       rx="5"
       ry="5" />
    <rect
       style="display:inline;fill:#8a916f;stroke-width:5.40061"
       id="rect540-7-8-1"
       width="28.99004"
       height="5.9163346"
       x="1653.3823"
       y="456.92102"
       rx="2"
       ry="2" />
    <rect
       style="display:inline;fill:#8a916f;stroke-width:5.40061"
       id="rect540-2-0-2-5"
       width="28.99004"
       height="5.9163346"
       x="1653.6565"
       y="466.34363"
       rx="2"
       ry="2"
       inkscape:transform-center-x="-15.974104"
       inkscape:transform-center-y="34.906374" />
    <circle
       style="display:inline;fill:#8a916f;stroke-width:4.99999"
       id="path540-8-3-5"
       cx="1668.1733"
       cy="503.06848"
       r="4.7330675" />
    <text
       xml:space="preserve"
       style="font-style:normal;font-variant:normal;font-weight:bold;font-stretch:normal;font-size:16.9333px;line-height:0;font-family:'Bitstream Vera Sans';-inkscape-font-specification:'Bitstream Vera Sans Bold';text-align:start;writing-mode:lr-tb;direction:ltr;text-anchor:start;display:inline;fill:#0000ff;stroke-width:4.99999"
       x="1575.2869"
       y="486.75256"
       id="text540-1-07-4"><tspan
         sodipodi:role="line"
         id="tspan540-9-77-7"
         style="font-size:16.9333px;fill:#e2e3db;stroke-width:5"
         x="1575.2869"
         y="486.75256">&gt;_</tspan></text>
    <rect
       style="display:inline;fill:#c4c8b7;stroke-width:4.99999"
       id="rect537-9-9-6-6"
       width="14.199203"
       height="21.890438"
       x="1557.5066"
       y="498.57141"
       rx="5"
       ry="5" />
    <use
       xlink:href="#sjjb-sport.svg:swimming_outdoor"
       width="470.9668"
       height="342.81229"
       style="fill:#008080;stroke:none"
       id="use1-8"
       transform="matrix(0.63642166,0,0,0.62010294,1361.7568,86.583051)" />
  </g>
</svg>
